<?xml version="1.0" encoding="iso-8859-1"?>
<!-- Generator: Adobe Illustrator 16.0.0, SVG Export Plug-In . SVG Version: 6.00 Build 0)  -->
<!DOCTYPE svg PUBLIC "-//W3C//DTD SVG 1.1//EN" "http://www.w3.org/Graphics/SVG/1.1/DTD/svg11.dtd">
<svg version="1.1" id="Capa_1" xmlns="http://www.w3.org/2000/svg" xmlns:xlink="http://www.w3.org/1999/xlink" x="0px" y="0px"
	 width="433.711px" height="433.711px" viewBox="0 0 433.711 433.711" style="enable-background:new 0 0 433.711 433.711;"
	 xml:space="preserve">
<g>
	<g id="Layer_3_10_">
		<g>
			<path d="M277.993,237.452V61.14c0-33.712-27.426-61.14-61.138-61.14c-33.712,0-61.138,27.427-61.138,61.14v176.312
				c-29.228,20.14-46.509,52.856-46.509,88.61c0,59.357,48.291,107.648,107.647,107.648c59.357,0,107.648-48.291,107.648-107.648
				C324.503,290.309,307.222,257.592,277.993,237.452z M216.855,413.711c-48.329,0-87.647-39.318-87.647-87.648
				c0-30.658,15.609-58.576,41.754-74.682c2.955-1.82,4.755-5.043,4.755-8.514V61.14c0-22.685,18.455-41.14,41.138-41.14
				s41.138,18.455,41.138,41.14v55.314h-14.817c-5.522,0-10,4.477-10,10s4.478,10,10,10h14.817v32.643h-14.817
				c-5.522,0-10,4.477-10,10c0,5.523,4.478,10,10,10h14.817v53.77c0,3.471,1.8,6.693,4.755,8.514
				c26.146,16.105,41.755,44.023,41.755,74.682C304.503,374.393,265.185,413.711,216.855,413.711z"/>
			<path d="M226.854,276.999V72.585c0-5.523-4.477-10-10-10s-10,4.477-10,10v204.414c-23.181,4.657-40.698,25.17-40.698,49.702
				c0,27.955,22.743,50.697,50.698,50.697c27.955,0,50.699-22.742,50.699-50.697C267.554,302.169,250.036,281.654,226.854,276.999z
				 M216.855,357.398c-16.927,0-30.698-13.771-30.698-30.697c0-16.928,13.771-30.697,30.698-30.697
				c16.927,0,30.699,13.771,30.699,30.697C247.554,343.628,233.782,357.398,216.855,357.398z"/>
		</g>
	</g>
</g>
<g>
</g>
<g>
</g>
<g>
</g>
<g>
</g>
<g>
</g>
<g>
</g>
<g>
</g>
<g>
</g>
<g>
</g>
<g>
</g>
<g>
</g>
<g>
</g>
<g>
</g>
<g>
</g>
<g>
</g>
</svg>
